<svg width="161" height="592" viewBox="0 0 161 592" fill="none" xmlns="http://www.w3.org/2000/svg">
<path d="M37.2529 88.5043L46.7529 98.0043C16.5 98.0043 10 120.5 8.25287 138.004L7.25287 177.004C6.75287 185.338 5.55287 203.004 4.75287 207.004C3.75287 212.004 1.25286 219.504 1.25286 220.004C-0.347139 228.004 -0.0804721 242.338 0.252861 248.504L0.752861 294.504C1.08619 297.671 1.75286 305.204 1.75286 310.004C1.75286 316.004 12.7529 329.004 13.7529 331.004C14.7528 333.004 19.2529 333.004 20.7529 333.004C22.2529 333.004 20.7529 327.004 20.2529 326.004C19.7529 325.004 16.7529 321.504 15.7529 321.004C14.7529 320.504 13.7529 312.504 13.7529 311.004C13.7529 309.504 13.7529 306.504 15.7529 306.504C17.3529 306.504 18.0862 308.504 18.2529 309.504C18.7529 311.004 19.9529 314.304 20.7529 315.504C21.7529 317.004 23.2529 317.504 24.2529 316.004C25.0529 314.804 23.2529 311.171 22.2529 309.504C20.2529 304.004 15.2529 293.004 13.7529 291.004C12.2529 289.004 13.2529 270.504 15.2529 268.004C16.8529 266.004 21.9195 236.504 24.2529 222.004L27.7529 192.004L29.7529 163.004C29.7529 163.004 30.5 159.504 31.2529 157.504C32.9439 153.012 34.5862 154.838 36.2529 156.504L43.2529 169.504C43.7529 179.504 44.7529 200.304 44.7529 203.504C44.7529 207.504 42.2529 222.004 40.7529 224.504C39.2529 227.004 34.2529 240.504 31.2529 251.004C28.2529 261.504 27.7529 278.004 27.7529 289.004C27.7529 300.004 31.7529 321.504 32.2529 327.004C32.7529 332.504 42.7529 375.004 43.2529 379.504C43.7529 384.004 45.7529 408.004 45.2529 409.504C44.7529 411.004 43.7529 448.504 44.2529 464.004C44.7529 479.504 52.2529 516.504 52.7529 518.504C53.2529 520.504 54.2529 552.504 54.2529 554.504C54.2529 556.504 53.7529 571.504 52.7529 573.504C51.7529 575.504 52.2529 586.504 52.7529 589.004C53.2529 591.504 59.2529 590.504 63.2529 591.004C67.2529 591.504 74.2529 591.504 76.2529 588.004C78.2529 584.504 74.7529 576.504 73.2529 573.504C71.7529 570.504 72.2529 561.504 71.2529 554.504C70.2529 547.504 71.7529 508.504 74.2529 490.504C76.7529 472.504 75.2529 421.004 74.2529 417.004C73.4529 413.804 74.5862 397.338 75.2529 389.504L76.7529 326.004L78.2529 295.504C80.6529 293.504 82.5862 295.671 83.2529 297.004L84.2529 325.004C84.4195 342.171 84.9529 379.804 85.7529 393.004C86.7529 409.504 85.7529 411.504 84.7529 433.504C83.7529 455.504 85.2529 483.004 85.7529 486.004C86.2529 489.004 89.7529 517.504 90.2529 523.504C90.6529 528.304 89.4195 550.838 88.7529 561.504C88.4195 565.338 87.4529 573.304 86.2529 574.504C84.7529 576.004 83.2529 582.504 83.2529 585.504C83.2529 587.904 88.2529 589.838 90.7529 590.504C94.0862 590.171 101.053 589.404 102.253 589.004C103.753 588.504 107.253 586.504 108.253 583.504C109.053 581.104 106.92 574.838 105.753 572.004V567.504V552.504L106.253 535.004C106.92 529.504 108.253 518.304 108.253 517.504C108.253 516.504 114.253 475.004 114.753 471.004C115.153 467.804 115.586 435.671 115.753 420.004V389.504C115.753 386.004 121.753 356.504 122.753 354.004C123.753 351.504 130.753 309.004 131.253 305.504C131.753 302.004 132.753 268.504 132.253 258.504C131.853 250.504 122.42 229.171 117.753 219.504L116.753 192.004L118.753 168.004L125.253 156.504L127.753 156.004C128.277 157.338 129.311 159.904 129.253 159.504C129.753 162.504 135.253 212.004 135.753 217.504C136.153 221.904 140.586 242.671 142.753 252.504C144.086 260.338 146.753 276.204 146.753 277.004C146.753 278.004 146.753 289.004 145.753 289.004C144.953 289.004 142.753 292.671 141.753 294.504L139.753 301.004C139.253 303.504 138.153 308.804 137.753 310.004C137.253 311.504 137.253 317.004 137.253 318.504C137.253 320.004 139.253 319.504 140.253 319.504C141.053 319.504 141.586 317.171 141.753 316.004C142.42 313.838 143.753 309.304 143.753 308.504C143.753 307.504 146.253 304.504 147.753 305.504C148.953 306.304 148.253 309.504 147.753 311.004L145.253 319.004L139.753 329.504C138.153 332.304 140.086 333.338 141.253 333.504L146.753 331.004L150.253 326.004L154.753 319.004L158.753 310.004L160.753 289.004C161.153 229.404 155.92 207.504 153.253 204.004C152.853 179.604 151.086 142.838 150.253 127.504C147.853 104.304 125.586 98.171 114.753 98.0043L121.753 86.5043C111.753 86.9043 111.253 72.671 112.253 65.5043C117.253 15.0043 113.253 0.504323 77.2529 0.00432296C41.2529 -0.495677 45.2529 42.5043 49.2529 63.0043C52.4529 79.4043 42.5862 86.8377 37.2529 88.5043Z" fill="#82BCAB"/>
</svg>
