<svg width="202" height="591" viewBox="0 0 202 591" fill="none" xmlns="http://www.w3.org/2000/svg">
<path d="M101.138 0C106.138 0 117.538 1.2 123.138 6C125.638 8 130.838 13.5 131.638 19.5C132.138 23 132.838 32.5 131.638 42.5C131.304 44.1667 129.138 50.8 123.138 64C122.638 64.6667 121.538 66.8 121.138 70V76.5C121.138 77.6667 121.538 80.5 123.138 82.5C125.471 85.5 131.938 91.9 139.138 93.5C143.804 94.5 154.638 96.5 160.638 96.5C167.638 96.8333 182.438 101.7 185.638 118.5C186.304 124.833 187.738 140.8 188.138 154C189.971 156 193.938 164.7 195.138 183.5C195.638 193.333 196.638 214.4 196.638 220C198.304 223 201.538 230.7 201.138 237.5C200.804 246.167 199.938 268.4 199.138 288C199.638 293.667 200.338 307.1 199.138 315.5C196.638 321 189.438 333.9 180.638 341.5C178.971 342 175.338 342.7 174.138 341.5C173.471 341.333 172.538 340.2 174.138 337C176.138 334.667 180.538 328.8 182.138 324C182.804 321.833 183.938 316.9 183.138 314.5C182.138 313 179.938 310.9 179.138 314.5C177.971 317.333 175.338 323.2 174.138 324C172.971 325 170.738 326 171.138 322C172.138 317.5 174.138 307.6 174.138 304C175.138 301.5 177.838 296.2 180.638 295C181.138 294 182.138 291.6 182.138 290C181.471 284.5 179.638 272.2 177.638 267C174.971 258.333 169.938 236.6 171.138 219C167.638 209.167 160.538 185.7 160.138 170.5C158.804 168.667 155.938 166.3 155.138 171.5C154.138 175.333 151.838 184.2 150.638 189C149.971 195.5 148.738 210.6 149.138 219V233C149.138 234.5 149.738 238.9 152.138 244.5C153.638 249 156.838 260.1 157.638 268.5C158.471 272.5 160.138 289.5 160.138 325.5C160.471 335.833 160.038 362.1 155.638 384.5C153.971 390.667 150.038 404.8 147.638 412C146.971 415.167 145.638 422.9 145.638 428.5C146.971 434.833 149.438 451.1 148.638 465.5C148.138 472 145.938 489.4 141.138 507C139.971 513.667 137.538 528.6 137.138 535V550.5C137.804 554.333 139.538 562.7 141.138 565.5C142.304 568.333 145.038 574.6 146.638 577C147.638 579 149.038 583.3 146.638 584.5C145.138 585.667 140.338 588.3 133.138 589.5C129.471 589.833 121.438 590.3 118.638 589.5C116.804 589 113.138 587.3 113.138 584.5C113.638 583.333 114.938 579.7 116.138 574.5C116.971 572.667 118.638 567.6 118.638 562C119.138 557.833 119.838 546.6 118.638 535C117.304 526.167 114.338 507 113.138 501C111.638 494.333 108.638 477.1 108.638 461.5C108.804 456.833 109.538 445.8 111.138 439C111.471 437 112.138 432.1 112.138 428.5C112.138 425.833 111.838 419 110.638 413C110.304 408.833 109.638 399.5 109.638 395.5C109.638 390.667 109.438 379.3 108.638 372.5C107.304 358 104.838 325.6 105.638 312C105.804 310.667 105.738 308 104.138 308H98.6376C98.1376 308 97.1376 308.6 97.1376 311C96.8042 324.167 95.8376 353.1 94.6376 363.5C93.8042 369.333 92.1376 382.7 92.1376 389.5C91.4709 399.167 90.1376 419.8 90.1376 425C90.1376 427.667 90.4376 434.3 91.6376 439.5C92.9709 446.333 94.8376 465.5 91.6376 487.5C89.6376 498 85.3376 521.9 84.1376 533.5C83.8042 537.333 83.1376 546.5 83.1376 552.5C83.8042 558.167 85.3376 570.1 86.1376 572.5C86.6305 575.129 87.7068 580.642 88.1203 581.947C88.1222 581.947 88.1276 581.964 88.1376 582C88.132 581.983 88.1262 581.965 88.1203 581.947C88.0828 581.945 89.42 588.597 85.1376 590.5C80.6376 590.833 71.0376 591.3 68.6376 590.5C64.4709 589.833 55.8376 587.7 54.6376 584.5C53.9709 583.833 53.3376 581.4 56.1376 577C59.3042 572.167 65.6376 560.5 65.6376 552.5C65.3042 544.333 64.3376 526.6 63.1376 521C61.8042 513.167 58.9376 496.8 58.1376 494C56.6376 488.833 53.5376 475.1 53.1376 461.5C52.9709 456.167 53.0376 443.9 54.6376 437.5C55.1376 434.167 56.1376 426.7 56.1376 423.5C55.9709 421.167 55.4376 415.5 54.6376 411.5C51.6376 401.833 45.5376 381.6 45.1376 378C43.9709 372 41.6376 357.4 41.6376 347C41.3042 335.5 40.8376 310.4 41.6376 302C42.1376 293 43.3376 273.2 44.1376 266C45.1376 260.5 47.9376 248 51.1376 242C51.3042 241.5 51.7376 239.5 52.1376 235.5C52.4709 226.667 53.1376 208.2 53.1376 205C52.9709 200 52.3376 188.7 51.1376 183.5C49.9709 181.167 47.5376 175.9 47.1376 173.5C46.9709 171.833 46.2376 168.6 44.6376 169C43.9709 169.667 42.5376 172 42.1376 176C41.3042 183.167 37.9376 201.3 31.1376 216.5C31.4709 222 31.7376 234.8 30.1376 242C28.4709 250.167 24.1376 269.5 20.1376 281.5C19.8042 284 19.3376 289.6 20.1376 292C22.1376 294 26.5376 299.2 28.1376 304C29.3042 307 31.6376 313.9 31.6376 317.5V324C30.9709 325.167 29.0376 326.6 26.6376 323C25.8042 320 23.6376 313.8 21.6376 313C20.8042 313 19.3376 313.9 20.1376 317.5C21.4709 321.667 24.7376 330.6 27.1376 333C28.1376 334.667 30.0376 338.2 29.6376 339C28.8042 340.5 25.6376 342.3 19.6376 337.5C15.9709 334.167 7.83758 325.7 4.63758 318.5C2.97091 312.5 0.137578 299.3 2.13758 294.5V283.5C1.97091 278.333 1.43758 266.6 0.637578 261C0.304244 254.5 -0.262422 240.1 0.137578 234.5C0.804246 229.667 2.73758 219.3 5.13758 216.5C4.63758 208.167 3.93758 189.5 5.13758 181.5C5.80425 175.667 8.33758 161.8 13.1376 153C13.3042 143.333 14.5376 121.6 18.1376 112C19.9709 107.5 25.7376 98.4 34.1376 98C38.3042 97.5 47.5376 96.3 51.1376 95.5C57.6376 94 71.3376 90.4 74.1376 88C76.1376 86.5 80.2376 83 80.6376 81C80.9709 79.6667 81.6376 76.6 81.6376 75V68.5C81.3042 67 80.3376 63.6 79.1376 62C76.6376 56.8333 71.4376 45.9 70.6376 43.5C69.9709 38.5 68.9376 26.6 70.1376 19C70.6376 16 73.1376 9.2 79.1376 6C81.9709 4.33333 90.3376 0.8 101.138 0Z" fill="#82BCAB"/>
</svg>
